<svg height="512pt" viewBox="0 -80 512 512" width="512pt" xmlns="http://www.w3.org/2000/svg"><path d="m40.160156 136.160156v8c0 8.808594-7.191406 16-16 16-8.871094 0-16-7.191406-16-16h-.082031v-8zm0 0" fill="#ffce54"/><path d="m136.078125 136.160156v8c0 8.808594-7.117187 16-16 16-8.796875 0-16-7.191406-16-16v-8zm0 0" fill="#ffce54"/><path d="m480 223.992188h24v24h-24zm0 0" fill="#965353"/><path d="m480 256v88h-176v-160c0-13.28125 10.71875-24 24-24v.078125h32v-.078125h48v.078125h48v-.078125c13.28125 0 24 10.71875 24 24zm0 0" fill="#656d78"/><path d="m392 160c-30.960938 0-56-25.121094-56-56 0 0 16 32 56 32s56-32 56-32c0 30.878906-25.121094 56-56 56zm0 0" fill="#eac6bb"/><path d="m424 16v24c13.28125 0 23.921875 10.71875 24 24v40s-16 32-56 32-56-32-56-32v-40c0-26.480469 21.441406-48 48-48zm0 0" fill="#965353"/><path d="m448 104v-40c-.078125-13.28125-10.71875-24-24-24v-24h-16v24c0 8.832031 7.167969 16 16 16 4.464844 0 7.976562 3.550781 8 8.078125v58.402344c11.097656-8.738281 16-18.480469 16-18.480469zm0 0" fill="#844747"/><path d="m272 78.960938c-13.761719-18-22.160156-21.199219-32-19.121094l16-32.488282c10 10.640626 16 24.960938 16 40.640626zm0 0" fill="#f6bb42"/><path d="m256 27.359375-16 32.488281c-15.039062 3.191406-33.519531 18.632813-80 13.273438-2.558594-.320313-5.199219-.640625-8-1.121094v-4c0-33.121094 26.878906-60 60-60 17.441406 0 33.121094 7.441406 44 19.359375zm0 0" fill="#ffce54"/><path d="m272 78.960938v17.039062c0 22.320312-13.039062 41.601562-32 50.558594-7.28125 3.519531-15.359375 5.441406-24 5.441406s-16.71875-1.921875-24-5.441406c-18.960938-8.957032-32-28.238282-32-50.558594v-22.878906c46.480469 5.359375 64.960938-10.082032 80-13.273438 9.839844-2.085937 18.238281 1.113282 32 19.113282zm0 0" fill="#eac6bb"/><path d="m255.984375 62.832031v33.167969c0 22.320312-13.039063 41.601562-32 50.558594-4.976563 2.410156-10.34375 3.992187-15.992187 4.808594 2.617187.375 5.273437.632812 8.007812.632812 8.640625 0 16.71875-1.921875 24-5.441406 18.960938-8.957032 32-28.238282 32-50.558594v-17.039062c-6.230469-8.160157-11.34375-13.160157-16.015625-16.128907zm0 0" fill="#d3b1a9"/><path d="m240 176v.078125l-8 7.921875-16-8-16 8-8-7.921875v-29.519531c7.28125 3.519531 15.359375 5.441406 24 5.441406s16.71875-1.921875 24-5.441406zm0 0" fill="#f5f7fa"/><path d="m232 184 8-7.921875h16v-.078125c13.28125 0 24 10.71875 24 24v24h-128v-24c0-13.28125 10.71875-24 24-24v.078125h16l8 7.921875 16-8zm0 0" fill="#e6e9ed"/><path d="m256 176v.078125h-15.230469c12.902344.425781 23.214844 10.90625 23.214844 23.921875v24h16.015625v-24c0-13.28125-10.71875-24-24-24zm0 0" fill="#ccd1d9"/><path d="m304 224v24h-296v-24zm0 0" fill="#965353"/><path d="m304 280v64h-240v-56c4.398438 0 8-3.519531 8-8zm0 0" fill="#965353"/><path d="m304 248v32h-232c0 4.480469-3.601562 8-8 8v56h-32v-96zm0 0" fill="#844747"/><path d="m432 122.480469v20.640625c9.878906-10.105469 16-23.898438 16-39.121094 0 0-4.902344 9.742188-16 18.480469zm0 0" fill="#d3b1a9"/><path d="m160.03125 104c-4.421875 0-8-3.574219-8-8v-22.945312c0-4.421876 3.578125-8 8-8 4.425781 0 8 3.578124 8 8v22.945312c0 4.425781-3.574219 8-8 8zm0 0"/><path d="m272.03125 104c-4.421875 0-8-3.574219-8-8v-28.007812c0-4.425782 3.578125-8 8-8 4.425781 0 8 3.574218 8 8v28.007812c0 4.425781-3.574219 8-8 8zm0 0"/><path d="m272.03125 75.992188c-4.421875 0-8-3.578126-8-8 0-28.671876-23.335938-51.992188-52.015625-51.992188-28.664063 0-51.984375 23.320312-51.984375 51.992188 0 4.421874-3.574219 8-8 8-4.421875 0-8-3.578126-8-8 0-37.496094 30.503906-67.992188 67.984375-67.992188 37.503906 0 68.015625 30.503906 68.015625 67.992188 0 4.421874-3.574219 8-8 8zm0 0"/><path d="m272.039062 86.960938c-2.40625 0-4.78125-1.082032-6.359374-3.136719-15.441407-20.167969-19.648438-18.511719-35.3125-12.304688-15.015626 5.960938-37.71875 14.960938-79.582032 8.335938-4.359375-.6875-7.34375-4.785157-6.648437-9.152344.679687-4.359375 4.785156-7.367187 9.152343-6.648437 37.527344 5.921874 56.992188-1.78125 71.191407-7.414063 19.296875-7.648437 32.214843-10.871094 53.902343 17.449219 2.6875 3.503906 2.023438 8.527344-1.488281 11.214844-1.445312 1.121093-3.160156 1.65625-4.855469 1.65625zm0 0"/><path d="m240.023438 67.808594c-1.175782 0-2.382813-.265625-3.519532-.824219-3.960937-1.945313-5.59375-6.746094-3.648437-10.703125l16-32.570312c1.945312-3.976563 6.710937-5.597657 10.710937-3.65625 3.960938 1.945312 5.59375 6.746093 3.648438 10.707031l-16 32.566406c-1.390625 2.839844-4.238282 4.480469-7.191406 4.480469zm0 0"/><path d="m152.039062 207.960938c-4.421874 0-8-3.578126-8-8 0-17.640626 14.351563-31.992188 32-31.992188 4.425782 0 8 3.574219 8 8 0 4.421875-3.574218 8-8 8-8.824218 0-16 7.167969-16 15.992188 0 4.421874-3.574218 8-8 8zm0 0"/><path d="m192.03125 184.015625h-15.992188c-4.421874 0-8-3.574219-8-8 0-4.421875 3.578126-8 8-8h15.992188c4.425781 0 8 3.578125 8 8 0 4.425781-3.574219 8-8 8zm0 0"/><path d="m152.039062 232c-4.421874 0-8-3.574219-8-8v-24.039062c0-4.425782 3.578126-8 8-8 4.425782 0 8 3.574218 8 8v24.039062c0 4.425781-3.574218 8-8 8zm0 0"/><path d="m280.023438 207.960938c-4.421876 0-8-3.578126-8-8 0-8.824219-7.175782-15.992188-16-15.992188-4.421876 0-8-3.578125-8-8 0-4.425781 3.578124-8 8-8 17.648437 0 32 14.351562 32 31.992188 0 4.421874-3.574219 8-8 8zm0 0"/><path d="m256.023438 184.015625h-15.992188c-4.421875 0-8-3.574219-8-8 0-4.421875 3.578125-8 8-8h15.992188c4.425781 0 8 3.578125 8 8 0 4.425781-3.574219 8-8 8zm0 0"/><path d="m280.023438 232c-4.421876 0-8-3.574219-8-8v-24.039062c0-4.425782 3.578124-8 8-8 4.425781 0 8 3.574218 8 8v24.039062c0 4.425781-3.574219 8-8 8zm0 0"/><path d="m192.03125 184.015625c-4.421875 0-8-3.574219-8-8v-29.472656c0-4.421875 3.578125-8 8-8 4.425781 0 8 3.578125 8 8v29.472656c0 4.425781-3.574219 8-8 8zm0 0"/><path d="m240.03125 183.960938c-4.421875 0-8-3.578126-8-8v-29.417969c0-4.421875 3.578125-8 8-8 4.425781 0 8 3.578125 8 8v29.417969c0 4.421874-3.574219 8-8 8zm0 0"/><path d="m216.03125 159.9375c-35.289062 0-64-28.707031-64-63.976562 0-4.425782 3.578125-8 8-8 4.425781 0 8 3.574218 8 8 0 26.453124 21.527344 47.976562 48 47.976562s48-21.523438 48-47.976562c0-4.425782 3.578125-8 8-8 4.425781 0 8 3.574218 8 8 0 35.269531-28.710938 63.976562-64 63.976562zm0 0"/><path d="m200.039062 191.960938c-2.933593 0-5.757812-1.617188-7.167968-4.425782-1.976563-3.949218-.375-8.757812 3.578125-10.734375l16-8c3.949219-1.960937 8.757812-.375 10.734375 3.574219 1.976562 3.953125.375 8.761719-3.574219 10.738281l-16 8c-1.144531.574219-2.371094.847657-3.570313.847657zm0 0"/><path d="m232.03125 191.960938c-2.046875 0-4.09375-.785157-5.65625-2.34375-3.128906-3.128907-3.128906-8.183594 0-11.3125l8-8c3.128906-3.128907 8.183594-3.128907 11.3125 0 3.128906 3.128906 3.128906 8.183593 0 11.3125l-8 8c-1.558594 1.558593-3.609375 2.34375-5.65625 2.34375zm0 0"/><path d="m200.03125 191.960938c-2.046875 0-4.09375-.785157-5.65625-2.34375l-8-8c-3.128906-3.128907-3.128906-8.183594 0-11.3125 3.128906-3.128907 8.183594-3.128907 11.3125 0l8 8c3.128906 3.128906 3.128906 8.183593 0 11.3125-1.558594 1.558593-3.609375 2.34375-5.65625 2.34375zm0 0"/><path d="m232.023438 191.960938c-1.199219 0-2.421876-.273438-3.566407-.839844l-16-8c-3.953125-1.976563-5.554687-6.785156-3.578125-10.738282 1.984375-3.949218 6.777344-5.535156 10.738282-3.574218l16 8c3.949218 1.976562 5.550781 6.785156 3.574218 10.734375-1.40625 2.800781-4.230468 4.417969-7.167968 4.417969zm0 0"/><path d="m448.023438 72.007812c-4.421876 0-8-3.574218-8-8 0-8.832031-7.183594-16.007812-16.015626-16.007812-4.421874 0-8-3.574219-8-8s3.578126-8 8-8c17.65625 0 32.015626 14.359375 32.015626 32.007812 0 4.425782-3.574219 8-8 8zm0 0"/><path d="m424.007812 48c-4.421874 0-8-3.574219-8-8v-24c0-4.425781 3.578126-8 8-8 4.425782 0 8 3.574219 8 8v24c0 4.425781-3.574218 8-8 8zm0 0"/><path d="m336.007812 72c-4.421874 0-8-3.574219-8-8 0-30.871094 25.128907-56 56-56 4.425782 0 8 3.574219 8 8s-3.574218 8-8 8c-22.054687 0-40 17.945312-40 40 0 4.425781-3.574218 8-8 8zm0 0"/><path d="m424.007812 24h-40c-4.421874 0-8-3.574219-8-8s3.578126-8 8-8h40c4.425782 0 8 3.574219 8 8s-3.574218 8-8 8zm0 0"/><path d="m392.007812 144c-44.433593 0-62.414062-34.9375-63.160156-36.425781-1.976562-3.949219-.375-8.757813 3.578125-10.734375 3.933594-1.953125 8.734375-.382813 10.71875 3.542968.597657 1.160157 14.566407 27.617188 48.863281 27.617188 34.65625 0 48.703126-27.304688 48.839844-27.574219 1.976563-3.953125 6.785156-5.546875 10.738282-3.578125 3.949218 1.976563 5.550781 6.785156 3.574218 10.738282-.734375 1.476562-18.71875 36.414062-63.152344 36.414062zm0 0"/><path d="m336.007812 112c-4.421874 0-8-3.574219-8-8v-40.03125c0-4.425781 3.578126-8 8-8 4.425782 0 8 3.574219 8 8v40.03125c0 4.425781-3.574218 8-8 8zm0 0"/><path d="m448.007812 112c-4.421874 0-8-3.574219-8-8v-40.03125c0-4.425781 3.578126-8 8-8 4.425782 0 8 3.574219 8 8v40.03125c0 4.425781-3.574218 8-8 8zm0 0"/><path d="m304.015625 191.960938c-4.421875 0-8-3.578126-8-8 0-17.640626 14.351563-31.992188 32-31.992188 4.425781 0 8 3.574219 8 8 0 4.421875-3.574219 8-8 8-8.824219 0-16 7.167969-16 15.992188 0 4.421874-3.574219 8-8 8zm0 0"/><path d="m360 168.015625h-31.984375c-4.421875 0-8-3.574219-8-8 0-4.421875 3.578125-8 8-8h31.984375c4.425781 0 8 3.578125 8 8 0 4.425781-3.574219 8-8 8zm0 0"/><path d="m304.015625 352c-4.421875 0-8-3.574219-8-8v-160.039062c0-4.425782 3.578125-8 8-8 4.425781 0 8 3.574218 8 8v160.039062c0 4.425781-3.574219 8-8 8zm0 0"/><path d="m480 191.960938c-4.425781 0-8-3.578126-8-8 0-8.824219-7.175781-15.992188-16-15.992188-4.425781 0-8-3.578125-8-8 0-4.425781 3.574219-8 8-8 17.648438 0 32 14.351562 32 31.992188 0 4.421874-3.574219 8-8 8zm0 0"/><path d="m456 168.015625h-48c-4.425781 0-8-3.574219-8-8 0-4.421875 3.574219-8 8-8h48c4.425781 0 8 3.578125 8 8 0 4.425781-3.574219 8-8 8zm0 0"/><path d="m480 352c-4.425781 0-8-3.574219-8-8v-160.039062c0-4.425782 3.574219-8 8-8s8 3.574218 8 8v160.039062c0 4.425781-3.574219 8-8 8zm0 0"/><path d="m392.007812 167.9375c-35.289062 0-64-28.707031-64-63.976562 0-4.425782 3.578126-8 8-8 4.425782 0 8 3.574218 8 8 0 26.453124 21.527344 47.976562 48 47.976562 26.472657 0 48-21.523438 48-47.976562 0-4.425782 3.578126-8 8-8 4.425782 0 8 3.574218 8 8 0 35.269531-28.710937 63.976562-64 63.976562zm0 0"/><path d="m408 167.960938h-48c-4.425781 0-8-3.578126-8-8 0-4.425782 3.574219-8 8-8h48c4.425781 0 8 3.574218 8 8 0 4.421874-3.574219 8-8 8zm0 0"/><path d="m304.015625 256h-296.015625c-4.425781 0-8-3.574219-8-8s3.574219-8 8-8h296.015625c4.425781 0 8 3.574219 8 8s-3.574219 8-8 8zm0 0"/><path d="m504 255.992188h-24c-4.425781 0-8-3.578126-8-8 0-4.425782 3.574219-8 8-8h24c4.425781 0 8 3.574218 8 8 0 4.421874-3.574219 8-8 8zm0 0"/><path d="m504 255.992188c-4.425781 0-8-3.578126-8-8v-24c0-4.425782 3.574219-8 8-8s8 3.574218 8 8v24c0 4.421874-3.574219 8-8 8zm0 0"/><path d="m504 231.992188h-24c-4.425781 0-8-3.578126-8-8 0-4.425782 3.574219-8 8-8h24c4.425781 0 8 3.574218 8 8 0 4.421874-3.574219 8-8 8zm0 0"/><path d="m304.015625 232h-296.015625c-4.425781 0-8-3.574219-8-8s3.574219-8 8-8h296.015625c4.425781 0 8 3.574219 8 8s-3.574219 8-8 8zm0 0"/><path d="m8 256c-4.425781 0-8-3.574219-8-8v-24c0-4.425781 3.574219-8 8-8s8 3.574219 8 8v24c0 4.425781-3.574219 8-8 8zm0 0"/><path d="m32 352c-4.425781 0-8-3.574219-8-8v-88c0-4.425781 3.574219-8 8-8s8 3.574219 8 8v88c0 4.425781-3.574219 8-8 8zm0 0"/><path d="m440.007812 232h-96c-4.421874 0-8-3.574219-8-8s3.578126-8 8-8h96c4.425782 0 8 3.574219 8 8s-3.574218 8-8 8zm0 0"/><path d="m440.007812 280h-96c-4.421874 0-8-3.574219-8-8s3.578126-8 8-8h96c4.425782 0 8 3.574219 8 8s-3.574218 8-8 8zm0 0"/><path d="m440.007812 328h-96c-4.421874 0-8-3.574219-8-8s3.578126-8 8-8h96c4.425782 0 8 3.574219 8 8s-3.574218 8-8 8zm0 0"/><path d="m304.015625 288h-232.015625c-4.425781 0-8-3.574219-8-8s3.574219-8 8-8h232.015625c4.425781 0 8 3.574219 8 8s-3.574219 8-8 8zm0 0"/><path d="m64 352c-4.425781 0-8-3.574219-8-8v-56.007812c0-4.425782 3.574219-8 8-8s8 3.574218 8 8v56.007812c0 4.425781-3.574219 8-8 8zm0 0"/><path d="m64 296c-4.425781 0-8-3.574219-8-8s3.574219-8 8-8c0-4.425781 3.574219-8 8-8s8 3.574219 8 8c0 8.824219-7.175781 16-16 16zm0 0"/><path d="m120.097656 96.121094h-95.9375c-4.425781 0-8-3.578125-8-8 0-4.425782 3.574219-8 8-8h95.9375c4.421875 0 8 3.574218 8 8 0 4.421875-3.585937 8-8 8zm0 0"/><path d="m72.136719 208.113281c-4.425781 0-8-3.578125-8-8v-127.984375c0-4.425781 3.574219-8 8-8 4.421875 0 8 3.574219 8 8v127.984375c0 4.414063-3.585938 8-8 8zm0 0"/><path d="m112.113281 208.113281h-79.953125c-4.425781 0-8-3.578125-8-8 0-4.425781 3.574219-8 8-8h79.953125c4.421875 0 8 3.574219 8 8 0 4.421875-3.585937 8-8 8zm0 0"/><path d="m120.105469 168.113281c-13.234375 0-24-10.769531-24-24 0-4.425781 3.574219-8 8-8 4.421875 0 8 3.574219 8 8 0 4.414063 3.582031 8 8 8 4.414062 0 8-3.585937 8-8 0-4.425781 3.574219-8 8-8 4.421875 0 8 3.574219 8 8 0 13.230469-10.769531 24-24 24zm0 0"/><path d="m104.105469 144.105469c-.832031 0-1.691407-.136719-2.53125-.417969-4.183594-1.390625-6.453125-5.917969-5.054688-10.121094l15.992188-47.980468c1.390625-4.1875 5.894531-6.472657 10.121093-5.058594 4.183594 1.394531 6.457032 5.921875 5.054688 10.121094l-15.992188 47.984374c-1.128906 3.351563-4.238281 5.472657-7.589843 5.472657zm0 0"/><path d="m136.089844 144.105469c-3.355469 0-6.472656-2.121094-7.585938-5.472657l-15.992187-47.984374c-1.398438-4.191407.863281-8.726563 5.054687-10.121094 4.226563-1.414063 8.722656.863281 10.121094 5.058594l15.992188 47.980468c1.398437 4.195313-.863282 8.730469-5.054688 10.121094-.847656.28125-1.703125.417969-2.535156.417969zm0 0"/><path d="m24.160156 168.113281c-13.230468 0-24-10.769531-24-24 0-4.425781 3.574219-8 8-8 4.425782 0 8 3.574219 8 8 0 4.414063 3.582032 8 8 8 4.414063 0 8-3.585937 8-8 0-4.425781 3.574219-8 8-8 4.425782 0 8 3.574219 8 8 0 13.230469-10.769531 24-24 24zm0 0"/><path d="m8.160156 144.105469c-.832031 0-1.6875-.136719-2.527344-.417969-4.183593-1.390625-6.457031-5.917969-5.058593-10.121094l15.992187-47.980468c1.402344-4.1875 5.882813-6.472657 10.121094-5.058594 4.183594 1.394531 6.457031 5.921875 5.054688 10.121094l-15.988282 47.984374c-1.128906 3.351563-4.25 5.472657-7.59375 5.472657zm0 0"/><path d="m40.144531 144.105469c-3.351562 0-6.472656-2.121094-7.585937-5.472657l-16-47.984374c-1.398438-4.191407.867187-8.726563 5.058594-10.121094 4.230468-1.414063 8.71875.863281 10.117187 5.058594l15.992187 47.980468c1.402344 4.195313-.863281 8.730469-5.054687 10.121094-.839844.28125-1.695313.417969-2.527344.417969zm0 0"/><path d="m40.144531 144.105469h-31.984375c-4.425781 0-8-3.578125-8-8 0-4.425781 3.574219-8 8-8h31.984375c4.421875 0 8 3.574219 8 8 0 4.421875-3.585937 8-8 8zm0 0"/><path d="m136.089844 144.105469h-31.984375c-4.425781 0-8-3.578125-8-8 0-4.425781 3.574219-8 8-8h31.984375c4.421875 0 8 3.574219 8 8 0 4.421875-3.585938 8-8 8zm0 0"/><path d="m40.160156 152.113281c-4.417968 0-7.992187-3.570312-8-7.984375l-.015625-8.007812c-.007812-4.425782 3.558594-8.007813 7.984375-8.015625h.015625c4.414063 0 7.992188 3.566406 8 7.984375l.015625 8.007812c.007813 4.421875-3.558594 8.007813-7.984375 8.015625-.007812 0-.007812 0-.015625 0zm0 0"/><path d="m136.097656 152.113281c-4.417968 0-7.992187-3.570312-8-7.984375l-.019531-8.007812c-.007813-4.425782 3.5625-8.007813 7.984375-8.015625h.015625c4.417969 0 7.992187 3.566406 8 7.984375l.019531 8.007812c.007813 4.421875-3.625 8.300782-8 8.015625zm0 0"/><path d="m8.136719 152.113281c-4.417969 0-7.992188-3.570312-8-7.984375l-.015625-8.007812c-.007813-4.425782 3.558594-8.007813 7.984375-8.015625h.015625c4.414062 0 7.992187 3.566406 8 7.984375l.015625 8.007812c.007812 4.421875-3.5625 8.007813-7.984375 8.015625-.007813 0-.007813 0-.015625 0zm0 0"/><path d="m104.121094 152.113281c-4.425782 0-8-3.578125-8-8v-8.007812c0-4.425781 3.574218-8 8-8 4.421875 0 8 3.574219 8 8v8.007812c0 4.414063-3.585938 8-8 8zm0 0"/></svg>