<svg id="Capa_1" enable-background="new 0 0 512 512" height="512" viewBox="0 0 512 512" width="512" xmlns="http://www.w3.org/2000/svg" xmlns:xlink="http://www.w3.org/1999/xlink"><linearGradient id="SVGID_1_" gradientTransform="matrix(0 -1 1 0 3192 -1616)" gradientUnits="userSpaceOnUse" x1="-1612.383" x2="-2096.841" y1="-2279.739" y2="-3634.137"><stop offset=".2202" stop-color="#e2ccff"/><stop offset="1" stop-color="#fff" stop-opacity="0"/></linearGradient><g><g><path d="m180.252.001c-100.63.534-151.151 173.599-170.006 262.559-18.855 88.961.847 271.458 147.096 247.249 23.64-3.913 29.158-4.715 48.645-14.497 34.685-17.411 75.734-29.661 112.83-33.359 15.211-1.516 34.445-6.538 44.624-8.368 81.626-14.679 164.928-93.76 139.709-176.622-18.939-62.228-74.428-87.278-129.998-83.834-30.518 1.891-62.997-16.011-69.51-35.788-21.214-64.417-45.612-157.752-123.39-157.34z" fill="url(#SVGID_1_)"/></g><g><g><path d="m180.224 42.179h-3v-3c0-2.762-2.239-5-5-5s-5 2.238-5 5v3h-3c-2.761 0-5 2.238-5 5s2.239 5 5 5h3v3c0 2.762 2.239 5 5 5s5-2.238 5-5v-3h3c2.761 0 5-2.238 5-5s-2.239-5-5-5z" fill="#c182f9"/><path d="m214.057 68.193h-3v-3c0-2.762-2.239-5-5-5s-5 2.238-5 5v3h-3c-2.761 0-5 2.238-5 5s2.239 5 5 5h3v3c0 2.762 2.239 5 5 5s5-2.238 5-5v-3h3c2.761 0 5-2.238 5-5s-2.239-5-5-5z" fill="#fdd250"/><path d="m225.51 461h-3v-3c0-2.762-2.239-5-5-5s-5 2.238-5 5v3h-3c-2.761 0-5 2.238-5 5s2.239 5 5 5h3v3c0 2.762 2.239 5 5 5s5-2.238 5-5v-3h3c2.761 0 5-2.238 5-5s-2.239-5-5-5z" fill="#fdd250"/><path d="m149.724 457.656c-1.28 0-2.559-.488-3.536-1.465l-4.464-4.464-4.464 4.464c-1.953 1.953-5.118 1.953-7.071 0-1.953-1.952-1.953-5.118 0-7.07l8-8c1.953-1.953 5.118-1.953 7.071 0l8 8c1.953 1.952 1.953 5.118 0 7.07-.977.977-2.256 1.465-3.536 1.465z" fill="#ffa052"/><path d="m388.754 85.191c-1.28 0-2.559-.488-3.536-1.465l-4.464-4.464-4.464 4.464c-1.953 1.953-5.118 1.953-7.071 0-1.953-1.952-1.953-5.118 0-7.07l8-8c1.953-1.953 5.118-1.953 7.071 0l8 8c1.953 1.952 1.953 5.118 0 7.07-.977.977-2.256 1.465-3.536 1.465z" fill="#ffa052"/><g><path d="m481.99 391.95v25.21c0 5.52-4.47 10-10 10h-431.98c-5.53 0-10-4.48-10-10v-25.21c0-5.52 4.47-10 10-10h136.005c1.451 0 2.831.63 3.78 1.728l12.875 14.872h126.66l12.875-14.872c.95-1.097 2.329-1.728 3.78-1.728h136.005c5.53 0 10 4.48 10 10z" fill="#590bb2" opacity=".1"/><path d="m452.044 378.634h-392.088v-249.734c0-9.505 7.705-17.21 17.21-17.21h357.669c9.505 0 17.21 7.705 17.21 17.21v249.734z" fill="#c182f9"/><path d="m481.99 364.95v25.21c0 5.52-4.47 10-10 10h-431.98c-5.53 0-10-4.48-10-10v-25.21c0-5.52 4.47-10 10-10h136.005c1.451 0 2.831.63 3.78 1.728l12.875 14.872h126.66l12.875-14.872c.95-1.097 2.329-1.728 3.78-1.728h136.005c5.53 0 10 4.48 10 10z" fill="#e2ccff"/><g fill="#590bb2"><path d="m59.956 181.366c2.761 0 5-2.238 5-5v-47.467c0-6.732 5.477-12.21 12.209-12.21h357.669c6.732 0 12.209 5.478 12.209 12.21v47.467c0 2.762 2.239 5 5 5s5-2.238 5-5v-47.467c0-12.247-9.963-22.21-22.209-22.21h-357.668c-12.247 0-22.209 9.963-22.209 22.21v47.467c-.001 2.762 2.238 5 4.999 5z"/><path d="m471.99 349.95h-14.946v-142.983c0-2.762-2.239-5-5-5s-5 2.238-5 5v142.983h-111.059c-2.905 0-5.661 1.26-7.561 3.455l-11.379 13.145h-122.09l-11.378-13.144c-1.9-2.196-4.656-3.456-7.562-3.456h-111.059v-142.983c0-2.762-2.239-5-5-5s-5 2.238-5 5v142.983h-14.946c-8.271 0-15 6.729-15 15v25.21c0 8.271 6.729 15 15 15h431.98c8.271 0 15-6.729 15-15v-25.21c0-8.271-6.729-15-15-15zm5 40.21c0 2.757-2.243 5-5 5h-431.98c-2.757 0-5-2.243-5-5v-25.21c0-2.757 2.243-5 5-5h136.005l12.875 14.872c.95 1.097 2.329 1.728 3.78 1.728h126.66c1.451 0 2.831-.631 3.78-1.728l12.875-14.872h136.005c2.757 0 5 2.243 5 5z"/></g><path d="m423.828 330.976h-335.656c-2.761 0-5-2.239-5-5v-184.432c0-2.761 2.239-5 5-5h335.656c2.761 0 5 2.239 5 5v184.432c0 2.761-2.238 5-5 5z" fill="#fff"/></g><path d="m250.369 248.776c-2.042 0-3.905-1.25-4.658-3.189l-13.928-35.853h-14.273c-2.761 0-5-2.238-5-5s2.239-5 5-5h17.695c2.063 0 3.914 1.267 4.661 3.189l8.233 21.192 8.871-62.815c.348-2.467 2.459-4.301 4.951-4.301h132.963c2.761 0 5 2.238 5 5s-2.239 5-5 5h-128.62l-10.941 77.476c-.318 2.253-2.117 4.007-4.376 4.268-.194.023-.387.033-.578.033z" fill="#ffa052"/><g><g fill="#ffa052"><path d="m205.391 281.784c-2.761 0-5-2.238-5-5v-19.333c0-2.762 2.239-5 5-5s5 2.238 5 5v19.333c0 2.762-2.239 5-5 5z"/><path d="m215.057 272.118h-19.333c-2.761 0-5-2.238-5-5s2.239-5 5-5h19.333c2.761 0 5 2.238 5 5s-2.239 5-5 5z"/><path d="m175.224 272.118h-67c-2.761 0-5-2.238-5-5s2.239-5 5-5h67c2.761 0 5 2.238 5 5s-2.239 5-5 5z"/></g><g><g fill="#cca1ff"><path d="m128 196.989h-5.332c-6.508 0-11.803-5.295-11.803-11.803v-16.457c0-6.508 5.295-11.803 11.803-11.803h5.332c6.508 0 11.803 5.295 11.803 11.803v16.457c0 6.508-5.295 11.803-11.803 11.803zm-5.332-30.062c-.994 0-1.803.809-1.803 1.803v16.457c0 .994.809 1.803 1.803 1.803h5.332c.994 0 1.803-.809 1.803-1.803v-16.457c0-.994-.809-1.803-1.803-1.803z"/><g><path d="m160.715 181.958h-9.395c-2.761 0-5-2.238-5-5s2.239-5 5-5h9.395c1.387 0 2.516-1.129 2.516-2.516s-1.128-2.516-2.516-2.516h-9.395c-2.761 0-5-2.238-5-5s2.239-5 5-5h9.395c6.901 0 12.516 5.614 12.516 12.516s-5.615 12.516-12.516 12.516z"/><path d="m160.715 196.989h-9.395c-2.761 0-5-2.238-5-5s2.239-5 5-5h9.395c1.387 0 2.516-1.129 2.516-2.516s-1.128-2.516-2.516-2.516h-9.395c-2.761 0-5-2.238-5-5s2.239-5 5-5h9.395c6.901 0 12.516 5.614 12.516 12.516s-5.615 12.516-12.516 12.516z"/></g></g><g><path d="m129.497 250.082h-5.332c-6.508 0-11.802-5.295-11.802-11.803v-16.457c0-6.508 5.294-11.803 11.802-11.803h5.332c6.508 0 11.803 5.295 11.803 11.803v16.457c0 6.508-5.295 11.803-11.803 11.803zm-5.331-30.062c-.994 0-1.802.809-1.802 1.803v16.457c0 .994.809 1.803 1.802 1.803h5.332c.994 0 1.803-.809 1.803-1.803v-16.457c0-.994-.809-1.803-1.803-1.803z" fill="#cca1ff"/></g><g fill="#cca1ff"><path d="m166.599 232.955h-14.025c-2.761 0-5-2.238-5-5v-12.935c0-2.762 2.239-5 5-5s5 2.238 5 5v7.936h9.025c2.761 0 5 2.238 5 5s-2.239 4.999-5 4.999z"/><path d="m168.196 249.466c-2.761 0-5-2.238-5-5v-29.446c0-2.762 2.239-5 5-5s5 2.238 5 5v29.446c0 2.762-2.238 5-5 5z"/></g></g></g><g fill="#cca1ff"><path d="m324.786 222.919c-2.761 0-5-2.238-5-5v-25.062h-.444c-2.761 0-5-2.238-5-5s2.239-5 5-5h5.444c2.761 0 5 2.238 5 5v30.062c0 2.762-2.239 5-5 5z"/><path d="m305.715 222.699h-18.108c-2.122 0-4.012-1.34-4.716-3.341-.705-2.001-.068-4.229 1.586-5.559 5.042-4.05 12.845-11.452 14.406-15.229.6-1.451.505-3.051-.247-4.176-.585-.875-1.455-1.318-2.586-1.318-1.898 0-3.442 1.544-3.442 3.442 0 2.762-2.239 5-5 5s-5-2.238-5-5c0-7.412 6.03-13.442 13.442-13.442 4.479 0 8.451 2.1 10.899 5.759 2.623 3.923 3.063 8.99 1.177 13.556-1.354 3.274-4.398 6.997-7.594 10.308h5.184c2.761 0 5 2.238 5 5s-2.24 5-5.001 5z"/></g><g fill="#cca1ff"><path d="m346.669 214.724c-1.28 0-2.559-.488-3.536-1.465-1.953-1.952-1.953-5.118 0-7.07l13.67-13.671c1.953-1.953 5.118-1.953 7.071 0 1.953 1.952 1.953 5.118 0 7.07l-13.67 13.671c-.976.976-2.255 1.465-3.535 1.465z"/><path d="m360.339 214.724c-1.28 0-2.559-.488-3.536-1.465l-13.67-13.671c-1.953-1.952-1.953-5.118 0-7.07 1.954-1.953 5.119-1.952 7.071 0l13.67 13.671c1.953 1.952 1.953 5.118 0 7.07-.976.976-2.255 1.465-3.535 1.465z"/></g><g><g><g><path d="m305.979 290.657h-49.52c-2.762 0-5-2.239-5-5s2.238-5 5-5h49.52c2.762 0 5 2.239 5 5s-2.239 5-5 5z" fill="#c182f9"/></g><g><path d="m332.979 308.16h-76.52c-2.762 0-5-2.239-5-5s2.238-5 5-5h76.52c2.762 0 5 2.239 5 5s-2.239 5-5 5z" fill="#c182f9"/></g></g><g fill="#c182f9"><circle cx="258.006" cy="267.607" r="5"/><circle cx="274.256" cy="267.607" r="5"/></g></g><path d="m408.004 330.976h-54.5v-90.651c0-2.761 2.239-5 5-5h44.5c2.761 0 5 2.239 5 5z" fill="#ffe783"/></g><path d="m217.51 330.976h-112.01v-27.816c0-2.761 2.239-5 5-5h102.01c2.761 0 5 2.239 5 5z" fill="#ffe783"/></g></g></svg>