<svg height="452pt" viewBox="0 -89 452.00001 452" width="452pt" xmlns="http://www.w3.org/2000/svg"><path d="m446 116.292969v102.679687c-.007812 11.722656-9.203125 21.382813-20.910156 21.96875-.359375.019532-.71875.03125-1.089844.03125h-396c-12.148438-.003906-21.996094-9.851562-22-22v-102.679687c.003906-12.148438 9.851562-21.996094 22-22h213.398438c0 48.597656 39.402343 88 88 88 48.601562 0 88-39.402344 88-88h6.601562c12.148438.003906 21.996094 9.851562 22 22zm-290.398438 95.339843v-88h-22v88zm-46.203124 0v-88h-22v88zm-46.199219 0v-88h-22v88zm0 0" fill="#e48e66"/><path d="m425.101562 241.332031v26.398438h-99v-26.757813h97.898438c.371094 0 .730469-.011718 1.089844-.03125zm0 0" fill="#e2d574"/><path d="m417.398438 93.929688v.363281c0 48.597656-39.398438 88-88 88-48.597657 0-88-39.402344-88-88v-.363281c0-48.597657 39.402343-88 88-88 48.601562 0 88 39.402343 88 88zm-33.007813.363281c.007813-.121094.007813-.242188.007813-.363281 0-30.375-24.621094-55-55-55-30.375 0-55 24.625-55 55 0 .121093 0 .242187.011718.363281.183594 30.238281 24.75 54.65625 54.988282 54.65625 30.242187 0 54.808593-24.417969 54.992187-54.65625zm0 0" fill="#f8ec7d"/><path d="m384.398438 93.929688c0 .121093 0 .242187-.007813.363281-.183594 30.238281-24.75 54.65625-54.992187 54.65625-30.238282 0-54.804688-24.417969-54.988282-54.65625-.011718-.121094-.011718-.242188-.011718-.363281 0-30.375 24.625-55 55-55 30.378906 0 55 24.625 55 55zm0 0" fill="#6fe3ff"/><path d="m133.601562 123.632812h22v88h-22zm0 0" fill="#f8ec7d"/><path d="m127 241.332031v26.398438h-99v-26.757813h99zm0 0" fill="#e2d574"/><path d="m87.398438 123.632812h22v88h-22zm0 0" fill="#f8ec7d"/><path d="m41.199219 123.632812h22v88h-22zm0 0" fill="#f8ec7d"/><g fill="#63316d"><path d="m424 88.292969h-.773438c-3.019531-49.609375-44.128906-88.292969-93.824218-88.292969-49.699219 0-90.808594 38.683594-93.828125 88.292969h-207.574219c-15.457031.015625-27.9804688 12.542969-28 28v102.679687c.0195312 13.144532 9.164062 24.511719 22 27.34375v21.414063c0 3.316406 2.6875 6 6 6h99c3.3125 0 6-2.683594 6-6v-20.757813h187.101562v20.757813c0 3.316406 2.683594 6 6 6h99c3.3125 0 6-2.683594 6-6v-21.671875c12.320313-3.21875 20.910157-14.351563 20.898438-27.085938v-102.679687c-.019531-15.457031-12.542969-27.984375-28-28zm-176.601562 5.636719c0-45.285157 36.714843-82 82-82 45.289062 0 82 36.714843 82 82v.34375c.007812 45.289062-36.703126 82.003906-81.988282 82.007812-45.289062.007812-82.003906-36.703125-82.011718-81.988281zm-126.398438 167.800781h-87v-14.757813h87zm298.101562 0h-87v-14.757813h87zm20.898438-42.757813c.007812 8.539063-6.703125 15.578125-15.234375 15.976563-.253906.015625-.5.023437-.765625.023437h-396c-8.832031-.011718-15.988281-7.167968-16-16v-102.679687c.011719-8.832031 7.167969-15.992188 16-16h207.621094c3.347656 49.328125 44.335937 87.632812 93.78125 87.632812 49.441406 0 90.429687-38.304687 93.777344-87.632812h.820312c8.832031.007812 15.988281 7.167969 16 16zm0 0"/><path d="m329.398438 154.929688c33.4375-.078126 60.609374-27 60.992187-60.433594.007813-.1875.007813-.378906.007813-.566406 0-33.6875-27.308594-61-61-61-33.6875 0-61 27.3125-61 61 0 .183593 0 .367187.011718.550781.378906 33.4375 27.550782 60.371093 60.988282 60.449219zm-49.007813-61.125.007813.125c0-27.058594 21.941406-49 49-49 27.0625 0 49 21.941406 49 49-.003907.109374-.007813.214843-.007813.320312-.171875 26.933594-22.054687 48.675781-48.992187 48.675781-26.933594 0-48.816407-21.742187-48.988282-48.675781 0-.148438-.011718-.296875-.019531-.445312zm0 0"/><path d="m63.199219 117.632812h-22c-3.3125 0-6 2.683594-6 6v88c0 3.3125 2.6875 6 6 6h22c3.316406 0 6-2.6875 6-6v-88c0-3.316406-2.683594-6-6-6zm-6 88h-10v-76h10zm0 0"/><path d="m109.398438 117.632812h-22c-3.3125 0-6 2.683594-6 6v88c0 3.3125 2.6875 6 6 6h22c3.316406 0 6-2.6875 6-6v-88c0-3.316406-2.683594-6-6-6zm-6 88h-10v-76h10zm0 0"/><path d="m155.601562 117.632812h-22c-3.316406 0-6 2.683594-6 6v88c0 3.3125 2.683594 6 6 6h22c3.3125 0 6-2.6875 6-6v-88c0-3.316406-2.6875-6-6-6zm-6 88h-10v-76h10zm0 0"/><path d="m344.175781 73.125c3.066407 1.875 5.679688 4.398438 7.664063 7.394531 4.316406 6.492188 5.125 14.433594 2.40625 23.609375-.941406 3.175782.871094 6.515625 4.050781 7.457032 3.175781.941406 6.515625-.875 7.457031-4.050782 7.433594-25.101562-7.195312-40.421875-15.96875-45.019531-2.929687-1.546875-6.5625-.429687-8.109375 2.5-1.550781 2.929687-.429687 6.5625 2.5 8.109375zm0 0"/></g></svg>